<svg width="1440" height="1024" viewBox="0 0 1440 1024" fill="none" xmlns="http://www.w3.org/2000/svg">
<g clip-path="url(#clip0_1_2)">
<rect width="1440" height="1024" fill="white"/>
<path d="M1687 377C1687 575.823 1525.82 737 1327 737C1128.18 737 967 575.823 967 377C967 178.177 1128.18 17 1327 17C1525.82 17 1687 178.177 1687 377ZM973.379 377C973.379 572.299 1131.7 730.621 1327 730.621C1522.3 730.621 1680.62 572.299 1680.62 377C1680.62 181.701 1522.3 23.3792 1327 23.3792C1131.7 23.3792 973.379 181.701 973.379 377Z" fill="url(#paint0_linear_1_2)"/>
<path d="M1643.8 377C1643.8 550.97 1502.77 692 1328.8 692C1154.83 692 1013.8 550.97 1013.8 377C1013.8 203.03 1154.83 62 1328.8 62C1502.77 62 1643.8 203.03 1643.8 377ZM1019.38 377C1019.38 547.887 1157.91 686.418 1328.8 686.418C1499.69 686.418 1638.22 547.887 1638.22 377C1638.22 206.113 1499.69 67.5818 1328.8 67.5818C1157.91 67.5818 1019.38 206.113 1019.38 377Z" fill="url(#paint1_linear_1_2)"/>
<path d="M1733.8 377C1733.8 600.675 1552.48 782 1328.8 782C1105.12 782 923.8 600.675 923.8 377C923.8 153.325 1105.12 -28 1328.8 -28C1552.48 -28 1733.8 153.325 1733.8 377ZM930.977 377C930.977 596.712 1109.09 774.823 1328.8 774.823C1548.51 774.823 1726.62 596.712 1726.62 377C1726.62 157.288 1548.51 -20.8234 1328.8 -20.8234C1109.09 -20.8234 930.977 157.288 930.977 377Z" fill="url(#paint2_linear_1_2)"/>
<path d="M1777 377C1777 625.528 1575.53 827 1327 827C1078.47 827 877 625.528 877 377C877 128.472 1078.47 -73 1327 -73C1575.53 -73 1777 128.472 1777 377ZM884.974 377C884.974 621.124 1082.88 819.026 1327 819.026C1571.12 819.026 1769.03 621.124 1769.03 377C1769.03 132.876 1571.12 -65.026 1327 -65.026C1082.88 -65.026 884.974 132.876 884.974 377Z" fill="url(#paint3_linear_1_2)"/>
</g>
<defs>
<linearGradient id="paint0_linear_1_2" x1="1327" y1="17" x2="1327" y2="737" gradientUnits="userSpaceOnUse">
<stop stop-color="#00FFD1"/>
<stop offset="1" stop-color="#00C2DD"/>
</linearGradient>
<linearGradient id="paint1_linear_1_2" x1="1328.8" y1="62" x2="1328.8" y2="692" gradientUnits="userSpaceOnUse">
<stop stop-color="#00FFD1"/>
<stop offset="1" stop-color="#00C2DD"/>
</linearGradient>
<linearGradient id="paint2_linear_1_2" x1="1328.8" y1="-28" x2="1328.8" y2="782" gradientUnits="userSpaceOnUse">
<stop stop-color="#00FFD1"/>
<stop offset="1" stop-color="#00C2DD"/>
</linearGradient>
<linearGradient id="paint3_linear_1_2" x1="1327" y1="-73" x2="1327" y2="827" gradientUnits="userSpaceOnUse">
<stop stop-color="#00FFD1"/>
<stop offset="1" stop-color="#00C2DD"/>
</linearGradient>
<clipPath id="clip0_1_2">
<rect width="1440" height="1024" fill="white"/>
</clipPath>
</defs>
</svg>
